<svg xmlns="http://www.w3.org/2000/svg" viewBox="0 0 32 32">
  <style>
    .mark { fill: #0073e6; }
    @media (prefers-color-scheme: dark) {
      .mark { fill: #4da3ff; }
    }
  </style>
  <rect class="mark" width="32" height="32" rx="8" />
  <!-- "pool" in Fjalla One 400, outlined so it matches the site logo without a web font -->
  <path fill="#ffffff" d="M7.10 20.53L7.16 21.77L7.16 24.46L5.30 24.46L5.30 11.11L6.75 11.11L6.92 12.18Q7.18 11.76 7.62 11.38Q8.07 11.00 8.79 11.00L8.79 11.00Q9.02 11.00 9.37 11.10Q9.72 11.19 10.07 11.53Q10.42 11.87 10.65 12.60Q10.88 13.33 10.88 14.62L10.88 14.62L10.88 17.68Q10.88 18.96 10.65 19.69Q10.41 20.43 10.05 20.78Q9.70 21.13 9.34 21.22Q8.97 21.32 8.72 21.32L8.72 21.32Q8.13 21.32 7.74 21.08Q7.35 20.85 7.10 20.53L7.10 20.53ZM7.16 13.20L7.16 19.01Q7.28 19.30 7.50 19.52Q7.71 19.75 8.09 19.75L8.09 19.75Q8.36 19.75 8.57 19.60Q8.77 19.46 8.90 19.06Q9.02 18.66 9.02 17.91L9.02 17.91L9.02 14.34Q9.02 13.58 8.90 13.19Q8.78 12.80 8.57 12.65Q8.36 12.51 8.09 12.51L8.09 12.51Q7.75 12.51 7.52 12.71Q7.30 12.92 7.16 13.20L7.16 13.20ZM14.54 21.31L14.54 21.31Q14.06 21.31 13.57 21.17Q13.08 21.02 12.66 20.58Q12.25 20.15 12.00 19.26Q11.75 18.37 11.75 16.87L11.75 16.87L11.75 15.29Q11.75 13.82 12.01 12.96Q12.26 12.10 12.68 11.67Q13.10 11.25 13.59 11.13Q14.08 11.00 14.55 11.00L14.55 11.00Q15.00 11.00 15.49 11.12Q15.97 11.24 16.38 11.65Q16.79 12.07 17.05 12.93Q17.30 13.80 17.30 15.29L17.30 15.29L17.30 16.87Q17.30 18.34 17.04 19.23Q16.78 20.11 16.36 20.56Q15.94 21.01 15.46 21.16Q14.98 21.31 14.54 21.31ZM14.56 19.93L14.56 19.93Q15.05 19.93 15.25 19.38Q15.44 18.83 15.44 17.42L15.44 17.42L15.44 14.91Q15.44 13.49 15.25 12.93Q15.05 12.37 14.56 12.37L14.56 12.37Q14.04 12.37 13.82 12.93Q13.61 13.49 13.61 14.91L13.61 14.91L13.61 17.42Q13.61 18.83 13.82 19.38Q14.04 19.93 14.56 19.93ZM20.96 21.31L20.96 21.31Q20.48 21.31 19.99 21.17Q19.49 21.02 19.08 20.58Q18.67 20.15 18.42 19.26Q18.17 18.37 18.17 16.87L18.17 16.87L18.17 15.29Q18.17 13.82 18.43 12.96Q18.68 12.10 19.10 11.67Q19.52 11.25 20.01 11.13Q20.50 11.00 20.97 11.00L20.97 11.00Q21.42 11.00 21.90 11.12Q22.39 11.24 22.80 11.65Q23.21 12.07 23.46 12.93Q23.72 13.80 23.72 15.29L23.72 15.29L23.72 16.87Q23.72 18.34 23.46 19.23Q23.19 20.11 22.78 20.56Q22.36 21.01 21.88 21.16Q21.40 21.31 20.96 21.31ZM20.97 19.93L20.97 19.93Q21.47 19.93 21.67 19.38Q21.86 18.83 21.86 17.42L21.86 17.42L21.86 14.91Q21.86 13.49 21.67 12.93Q21.47 12.37 20.97 12.37L20.97 12.37Q20.45 12.37 20.24 12.93Q20.03 13.49 20.03 14.91L20.03 14.91L20.03 17.42Q20.03 18.83 20.24 19.38Q20.45 19.93 20.97 19.93ZM24.84 21.20L24.84 7.88L26.69 7.88L26.69 21.20L24.84 21.20Z" />
</svg>
